<svg width="20" height="20" viewBox="0 0 20 20" fill="none" xmlns="http://www.w3.org/2000/svg">
<mask id="mask0_123_41" style="mask-type:luminance" maskUnits="userSpaceOnUse" x="3" y="3" width="15" height="15">
<path fill-rule="evenodd" clip-rule="evenodd" d="M3 3.7674H17.3964V17.4806H3V3.7674Z" fill="white"/>
</mask>
<g mask="url(#mask0_123_41)">
<path fill-rule="evenodd" clip-rule="evenodd" d="M4.2839 10.1814C5.26979 13.2488 9.16484 15.729 10.2 16.3429C11.2386 15.7227 15.1618 13.2151 16.116 10.1842C16.7426 8.22512 16.161 5.74351 13.8503 4.99881C12.7308 4.63948 11.4249 4.85817 10.5234 5.55575C10.335 5.70061 10.0734 5.70343 9.88352 5.55997C8.92857 4.842 7.68108 4.63174 6.544 4.99881C4.23679 5.7428 3.65734 8.22441 4.2839 10.1814M10.1994 17.4799C10.1122 17.4799 10.0257 17.4588 9.94693 17.4159C9.72683 17.2957 4.5421 14.4379 3.27844 10.5041C3.27774 10.5041 3.27774 10.5034 3.27774 10.5034C2.48452 8.02676 3.36775 4.91438 6.21924 3.99529C7.55814 3.56211 9.01729 3.75268 10.1973 4.49738C11.3407 3.77448 12.8596 3.57477 14.1718 3.99529C17.0261 4.91578 17.9121 8.02746 17.1196 10.5034C15.8967 14.3922 10.674 17.2929 10.4525 17.4145C10.3738 17.4581 10.2866 17.4799 10.1994 17.4799" fill="#B8B8B8"/>
</g>
<path fill-rule="evenodd" clip-rule="evenodd" d="M14.3584 9.12951C14.0862 9.12951 13.8556 8.92066 13.8331 8.645C13.7867 8.06697 13.3999 7.57894 12.8493 7.40103C12.5715 7.31102 12.4196 7.01357 12.509 6.73721C12.5997 6.46015 12.8943 6.30966 13.1728 6.39686C14.1312 6.70697 14.8028 7.55574 14.8851 8.55921C14.9083 8.84964 14.6924 9.1042 14.402 9.1274C14.3872 9.12881 14.3731 9.12951 14.3584 9.12951" fill="#B8B8B8"/>
</svg>
